<?xml version="1.0" encoding="UTF-8" standalone="no"?><svg xmlns="http://www.w3.org/2000/svg" xmlns:xlink="http://www.w3.org/1999/xlink" contentStyleType="text/css" height="502px" preserveAspectRatio="none" style="width:2399px;height:502px;background:#FFFFFF;" version="1.1" viewBox="0 0 2399 502" width="2399px" zoomAndPan="magnify"><defs/><g><!--MD5=[19b3e6948f6bff96e7c509d6df5770e8]
cluster rollcall::aulaAlu.dart--><g id="cluster_rollcall::aulaAlu.dart"><path d="M8.5,130 L147.5,130 A3.75,3.75 0 0 1 150,132.5 L157,153.6094 L470.5,153.6094 A2.5,2.5 0 0 1 473,156.1094 L473,368.5 A2.5,2.5 0 0 1 470.5,371 L8.5,371 A2.5,2.5 0 0 1 6,368.5 L6,132.5 A2.5,2.5 0 0 1 8.5,130 " fill="none" style="stroke:#000000;stroke-width:1.5;"/><line style="stroke:#000000;stroke-width:1.5;" x1="6" x2="157" y1="153.6094" y2="153.6094"/><text fill="#000000" font-family="sans-serif" font-size="14" font-weight="bold" lengthAdjust="spacing" textLength="138" x="10" y="146.5332">rollcall::aulaAlu.dart</text></g><!--MD5=[1b91236ccc4e258431d00b8b19fdf6ca]
cluster flutter::src::widgets::framework.dart--><g id="cluster_flutter::src::widgets::framework.dart"><path d="M1049.5,6 L1300.5,6 A3.75,3.75 0 0 1 1303,8.5 L1310,29.6094 L1310.5,29.6094 A2.5,2.5 0 0 1 1313,32.1094 L1313,103.5 A2.5,2.5 0 0 1 1310.5,106 L1049.5,106 A2.5,2.5 0 0 1 1047,103.5 L1047,8.5 A2.5,2.5 0 0 1 1049.5,6 " fill="none" style="stroke:#000000;stroke-width:1.5;"/><line style="stroke:#000000;stroke-width:1.5;" x1="1047" x2="1310" y1="29.6094" y2="29.6094"/><text fill="#000000" font-family="sans-serif" font-size="14" font-weight="bold" lengthAdjust="spacing" textLength="250" x="1051" y="22.5332">flutter::src::widgets::framework.dart</text></g><!--MD5=[095cfae3c22cf566456f2576653870c3]
cluster dart::async--><g id="cluster_dart::async"><path d="M41.5,395 L118.5,395 A3.75,3.75 0 0 1 121,397.5 L128,418.6094 L136.5,418.6094 A2.5,2.5 0 0 1 139,421.1094 L139,492.5 A2.5,2.5 0 0 1 136.5,495 L41.5,495 A2.5,2.5 0 0 1 39,492.5 L39,397.5 A2.5,2.5 0 0 1 41.5,395 " fill="none" style="stroke:#000000;stroke-width:1.5;"/><line style="stroke:#000000;stroke-width:1.5;" x1="39" x2="128" y1="418.6094" y2="418.6094"/><text fill="#000000" font-family="sans-serif" font-size="14" font-weight="bold" lengthAdjust="spacing" textLength="76" x="43" y="411.5332">dart::async</text></g><!--MD5=[8a92a37e2862db637289894445bbd92c]
cluster geolocator_platform_interface::src::models::position.dart--><g id="cluster_geolocator_platform_interface::src::models::position.dart"><path d="M165.5,395 L565.5,395 A3.75,3.75 0 0 1 568,397.5 L575,418.6094 L575.5,418.6094 A2.5,2.5 0 0 1 578,421.1094 L578,492.5 A2.5,2.5 0 0 1 575.5,495 L165.5,495 A2.5,2.5 0 0 1 163,492.5 L163,397.5 A2.5,2.5 0 0 1 165.5,395 " fill="none" style="stroke:#000000;stroke-width:1.5;"/><line style="stroke:#000000;stroke-width:1.5;" x1="163" x2="575" y1="418.6094" y2="418.6094"/><text fill="#000000" font-family="sans-serif" font-size="14" font-weight="bold" lengthAdjust="spacing" textLength="399" x="167" y="411.5332">geolocator_platform_interface::src::models::position.dart</text></g><!--MD5=[302b42b592bcbbd32dc2ce0580ff8e23]
cluster rollcall::aulaProf.dart--><g id="cluster_rollcall::aulaProf.dart"><path d="M499.5,165.5 L645.5,165.5 A3.75,3.75 0 0 1 648,168 L655,189.1094 L897.5,189.1094 A2.5,2.5 0 0 1 900,191.6094 L900,333 A2.5,2.5 0 0 1 897.5,335.5 L499.5,335.5 A2.5,2.5 0 0 1 497,333 L497,168 A2.5,2.5 0 0 1 499.5,165.5 " fill="none" style="stroke:#000000;stroke-width:1.5;"/><line style="stroke:#000000;stroke-width:1.5;" x1="497" x2="655" y1="189.1094" y2="189.1094"/><text fill="#000000" font-family="sans-serif" font-size="14" font-weight="bold" lengthAdjust="spacing" textLength="145" x="501" y="182.0332">rollcall::aulaProf.dart</text></g><!--MD5=[51b169e560bd3008c6541225a3c192a5]
cluster rollcall::main.dart--><g id="cluster_rollcall::main.dart"><path d="M926.5,156.5 L1047.5,156.5 A3.75,3.75 0 0 1 1050,159 L1057,180.1094 L1400.5,180.1094 A2.5,2.5 0 0 1 1403,182.6094 L1403,342 A2.5,2.5 0 0 1 1400.5,344.5 L926.5,344.5 A2.5,2.5 0 0 1 924,342 L924,159 A2.5,2.5 0 0 1 926.5,156.5 " fill="none" style="stroke:#000000;stroke-width:1.5;"/><line style="stroke:#000000;stroke-width:1.5;" x1="924" x2="1057" y1="180.1094" y2="180.1094"/><text fill="#000000" font-family="sans-serif" font-size="14" font-weight="bold" lengthAdjust="spacing" textLength="120" x="928" y="173.0332">rollcall::main.dart</text></g><!--MD5=[e06b2be89d5a0e5a906fffa5e578fb31]
cluster flutter::src::widgets::editable_text.dart--><g id="cluster_flutter::src::widgets::editable_text.dart"><path d="M905.5,395 L1174.5,395 A3.75,3.75 0 0 1 1177,397.5 L1184,418.6094 L1184.5,418.6094 A2.5,2.5 0 0 1 1187,421.1094 L1187,492.5 A2.5,2.5 0 0 1 1184.5,495 L905.5,495 A2.5,2.5 0 0 1 903,492.5 L903,397.5 A2.5,2.5 0 0 1 905.5,395 " fill="none" style="stroke:#000000;stroke-width:1.5;"/><line style="stroke:#000000;stroke-width:1.5;" x1="903" x2="1184" y1="418.6094" y2="418.6094"/><text fill="#000000" font-family="sans-serif" font-size="14" font-weight="bold" lengthAdjust="spacing" textLength="268" x="907" y="411.5332">flutter::src::widgets::editable_text.dart</text></g><!--MD5=[8dd0e02879ff5dd3f429a06e3523edb1]
cluster rollcall::telaAluno.dart--><g id="cluster_rollcall::telaAluno.dart"><path d="M1429.5,174 L1583.5,174 A3.75,3.75 0 0 1 1586,176.5 L1593,197.6094 L1882.5,197.6094 A2.5,2.5 0 0 1 1885,200.1094 L1885,324.5 A2.5,2.5 0 0 1 1882.5,327 L1429.5,327 A2.5,2.5 0 0 1 1427,324.5 L1427,176.5 A2.5,2.5 0 0 1 1429.5,174 " fill="none" style="stroke:#000000;stroke-width:1.5;"/><line style="stroke:#000000;stroke-width:1.5;" x1="1427" x2="1593" y1="197.6094" y2="197.6094"/><text fill="#000000" font-family="sans-serif" font-size="14" font-weight="bold" lengthAdjust="spacing" textLength="153" x="1431" y="190.5332">rollcall::telaAluno.dart</text></g><!--MD5=[92ed1f13c814576b96c4e4f316fa9591]
cluster rollcall::telaProfessor.dart--><g id="cluster_rollcall::telaProfessor.dart"><path d="M1911.5,174 L2094.5,174 A3.75,3.75 0 0 1 2097,176.5 L2104,197.6094 L2389.5,197.6094 A2.5,2.5 0 0 1 2392,200.1094 L2392,324.5 A2.5,2.5 0 0 1 2389.5,327 L1911.5,327 A2.5,2.5 0 0 1 1909,324.5 L1909,176.5 A2.5,2.5 0 0 1 1911.5,174 " fill="none" style="stroke:#000000;stroke-width:1.5;"/><line style="stroke:#000000;stroke-width:1.5;" x1="1909" x2="2104" y1="197.6094" y2="197.6094"/><text fill="#000000" font-family="sans-serif" font-size="14" font-weight="bold" lengthAdjust="spacing" textLength="182" x="1913" y="190.5332">rollcall::telaProfessor.dart</text></g><!--MD5=[fe6c8e8114e0438d9f08e11e3c7121d6]
class rollcall::aulaAlu.dart::AulaAlu--><g id="elem_rollcall::aulaAlu.dart::AulaAlu"><rect codeLine="3" fill="#F1F1F1" height="118.4375" id="rollcall::aulaAlu.dart::AulaAlu" rx="2.5" ry="2.5" style="stroke:#181818;stroke-width:0.5;" width="202" x="255" y="201.5"/><ellipse cx="327.75" cy="217.5" fill="#ADD1B2" rx="11" ry="11" style="stroke:#181818;stroke-width:1.0;"/><path d="M329.75,214 Q329.9531,213.5 330.1875,213.25 Q330.4219,213 330.6875,213 Q331.1563,213 331.4531,213.2813 Q331.75,213.5625 331.75,214.2188 L331.75,215.7813 Q331.75,216.4375 331.4688,216.7188 Q331.1875,217 330.75,217 Q330.3594,217 330.1094,216.8281 Q329.8594,216.6563 329.75,216.2031 Q329.7031,215.8906 329.5313,215.7188 Q329.2188,215.3906 328.6563,215.2031 Q328.0938,215 327.5313,215 Q326.8281,215 326.2344,215.2813 Q325.6563,215.5625 325.2031,216.1875 Q324.75,216.8125 324.75,217.6719 L324.75,218.5938 Q324.75,219.625 325.5938,220.3125 Q326.4375,221 327.9375,221 Q328.8281,221 329.4531,220.7969 Q329.8125,220.6875 330.2188,220.3281 Q330.4844,220.125 330.625,220.0625 Q330.7656,220 330.9375,220 Q331.2656,220 331.5,220.2656 Q331.75,220.5156 331.75,220.875 Q331.75,221.2188 331.4063,221.625 Q330.9063,222.2188 330.1094,222.5469 Q329.0625,223 327.7813,223 Q326.2813,223 325.0781,222.4063 Q324.1094,221.9375 323.4219,220.9219 Q322.75,219.9063 322.75,218.7031 L322.75,217.6094 Q322.75,216.3594 323.3438,215.2656 Q323.9531,214.1719 325,213.5938 Q326.0625,213 327.25,213 Q327.9688,213 328.5938,213.25 Q329.2188,213.5 329.75,214 Z " fill="#000000"/><text fill="#000000" font-family="sans-serif" font-size="14" lengthAdjust="spacing" textLength="48" x="348.25" y="223.2285">AulaAlu</text><line style="stroke:#181818;stroke-width:0.5;" x1="256" x2="456" y1="233.5" y2="233.5"/><ellipse cx="266" cy="247.8047" fill="none" rx="3" ry="3" style="stroke:#038048;stroke-width:1.0;"/><text fill="#000000" font-family="sans-serif" font-size="14" lengthAdjust="spacing" textLength="96" x="275" y="252.0332">String recLogin</text><ellipse cx="266" cy="265.4141" fill="none" rx="3" ry="3" style="stroke:#038048;stroke-width:1.0;"/><text fill="#000000" font-family="sans-serif" font-size="14" lengthAdjust="spacing" textLength="89" x="275" y="269.6426">String recAula</text><ellipse cx="266" cy="283.0234" fill="none" rx="3" ry="3" style="stroke:#038048;stroke-width:1.0;"/><text fill="#000000" font-family="sans-serif" font-size="14" lengthAdjust="spacing" textLength="97" x="275" y="287.252">String recNome</text><line style="stroke:#181818;stroke-width:0.5;" x1="256" x2="456" y1="294.3281" y2="294.3281"/><ellipse cx="266" cy="308.6328" fill="#84BE84" rx="3" ry="3" style="stroke:#038048;stroke-width:1.0;"/><text fill="#000000" font-family="sans-serif" font-size="14" lengthAdjust="spacing" textLength="176" x="275" y="312.8613">_AulaAluState createState()</text></g><!--MD5=[46e714261f2b2646e116ec45f1439c2b]
class rollcall::aulaAlu.dart::_AulaAluState--><g id="elem_rollcall::aulaAlu.dart::_AulaAluState"><rect codeLine="12" fill="#F1F1F1" height="188.875" id="rollcall::aulaAlu.dart::_AulaAluState" rx="2.5" ry="2.5" style="stroke:#181818;stroke-width:0.5;" width="198" x="22" y="166"/><ellipse cx="72.25" cy="182" fill="#ADD1B2" rx="11" ry="11" style="stroke:#181818;stroke-width:1.0;"/><path d="M74.25,178.5 Q74.4531,178 74.6875,177.75 Q74.9219,177.5 75.1875,177.5 Q75.6563,177.5 75.9531,177.7813 Q76.25,178.0625 76.25,178.7188 L76.25,180.2813 Q76.25,180.9375 75.9688,181.2188 Q75.6875,181.5 75.25,181.5 Q74.8594,181.5 74.6094,181.3281 Q74.3594,181.1563 74.25,180.7031 Q74.2031,180.3906 74.0313,180.2188 Q73.7188,179.8906 73.1563,179.7031 Q72.5938,179.5 72.0313,179.5 Q71.3281,179.5 70.7344,179.7813 Q70.1563,180.0625 69.7031,180.6875 Q69.25,181.3125 69.25,182.1719 L69.25,183.0938 Q69.25,184.125 70.0938,184.8125 Q70.9375,185.5 72.4375,185.5 Q73.3281,185.5 73.9531,185.2969 Q74.3125,185.1875 74.7188,184.8281 Q74.9844,184.625 75.125,184.5625 Q75.2656,184.5 75.4375,184.5 Q75.7656,184.5 76,184.7656 Q76.25,185.0156 76.25,185.375 Q76.25,185.7188 75.9063,186.125 Q75.4063,186.7188 74.6094,187.0469 Q73.5625,187.5 72.2813,187.5 Q70.7813,187.5 69.5781,186.9063 Q68.6094,186.4375 67.9219,185.4219 Q67.25,184.4063 67.25,183.2031 L67.25,182.1094 Q67.25,180.8594 67.8438,179.7656 Q68.4531,178.6719 69.5,178.0938 Q70.5625,177.5 71.75,177.5 Q72.4688,177.5 73.0938,177.75 Q73.7188,178 74.25,178.5 Z " fill="#000000"/><text fill="#000000" font-family="sans-serif" font-size="14" lengthAdjust="spacing" textLength="89" x="92.75" y="187.7285">_AulaAluState</text><line style="stroke:#181818;stroke-width:0.5;" x1="23" x2="219" y1="198" y2="198"/><ellipse cx="33" cy="212.3047" fill="none" rx="3" ry="3" style="stroke:#038048;stroke-width:1.0;"/><text fill="#000000" font-family="sans-serif" font-size="14" lengthAdjust="spacing" textLength="80" x="42" y="216.5332">Timer reload</text><ellipse cx="33" cy="229.9141" fill="none" rx="3" ry="3" style="stroke:#038048;stroke-width:1.0;"/><text fill="#000000" font-family="sans-serif" font-size="14" lengthAdjust="spacing" textLength="110" x="42" y="234.1426">String dProfessor</text><ellipse cx="33" cy="247.5234" fill="none" rx="3" ry="3" style="stroke:#038048;stroke-width:1.0;"/><text fill="#000000" font-family="sans-serif" font-size="14" lengthAdjust="spacing" textLength="94" x="42" y="251.752">Position? aPos</text><line style="stroke:#181818;stroke-width:0.5;" x1="23" x2="219" y1="258.8281" y2="258.8281"/><ellipse cx="33" cy="273.1328" fill="#84BE84" rx="3" ry="3" style="stroke:#038048;stroke-width:1.0;"/><text fill="#000000" font-family="sans-serif" font-size="14" lengthAdjust="spacing" textLength="91" x="42" y="277.3613">void initState()</text><ellipse cx="33" cy="290.7422" fill="#84BE84" rx="3" ry="3" style="stroke:#038048;stroke-width:1.0;"/><text fill="#000000" font-family="sans-serif" font-size="14" lengthAdjust="spacing" textLength="151" x="42" y="294.9707">Future&lt;void&gt; conexao()</text><ellipse cx="33" cy="308.3516" fill="#84BE84" rx="3" ry="3" style="stroke:#038048;stroke-width:1.0;"/><text fill="#000000" font-family="sans-serif" font-size="14" lengthAdjust="spacing" textLength="158" x="42" y="312.5801">Future&lt;void&gt; responde()</text><ellipse cx="33" cy="325.9609" fill="#84BE84" rx="3" ry="3" style="stroke:#038048;stroke-width:1.0;"/><text fill="#000000" font-family="sans-serif" font-size="14" lengthAdjust="spacing" textLength="172" x="42" y="330.1895">Future&lt;Position&gt; Posicao()</text><ellipse cx="33" cy="343.5703" fill="#84BE84" rx="3" ry="3" style="stroke:#038048;stroke-width:1.0;"/><text fill="#000000" font-family="sans-serif" font-size="14" lengthAdjust="spacing" textLength="88" x="42" y="347.7988">Widget build()</text></g><!--MD5=[aa3f7eeafec522ba9bc8f59b3155082c]
class flutter::src::widgets::framework.dart::StatefulWidget--><g id="elem_flutter::src::widgets::framework.dart::StatefulWidget"><rect fill="#F1F1F1" height="48" id="flutter::src::widgets::framework.dart::StatefulWidget" rx="2.5" ry="2.5" style="stroke:#181818;stroke-width:0.5;" width="124" x="1168" y="42"/><ellipse cx="1183" cy="58" fill="#ADD1B2" rx="11" ry="11" style="stroke:#181818;stroke-width:1.0;"/><path d="M1185,54.5 Q1185.2031,54 1185.4375,53.75 Q1185.6719,53.5 1185.9375,53.5 Q1186.4063,53.5 1186.7031,53.7813 Q1187,54.0625 1187,54.7188 L1187,56.2813 Q1187,56.9375 1186.7188,57.2188 Q1186.4375,57.5 1186,57.5 Q1185.6094,57.5 1185.3594,57.3281 Q1185.1094,57.1563 1185,56.7031 Q1184.9531,56.3906 1184.7813,56.2188 Q1184.4688,55.8906 1183.9063,55.7031 Q1183.3438,55.5 1182.7813,55.5 Q1182.0781,55.5 1181.4844,55.7813 Q1180.9063,56.0625 1180.4531,56.6875 Q1180,57.3125 1180,58.1719 L1180,59.0938 Q1180,60.125 1180.8438,60.8125 Q1181.6875,61.5 1183.1875,61.5 Q1184.0781,61.5 1184.7031,61.2969 Q1185.0625,61.1875 1185.4688,60.8281 Q1185.7344,60.625 1185.875,60.5625 Q1186.0156,60.5 1186.1875,60.5 Q1186.5156,60.5 1186.75,60.7656 Q1187,61.0156 1187,61.375 Q1187,61.7188 1186.6563,62.125 Q1186.1563,62.7188 1185.3594,63.0469 Q1184.3125,63.5 1183.0313,63.5 Q1181.5313,63.5 1180.3281,62.9063 Q1179.3594,62.4375 1178.6719,61.4219 Q1178,60.4063 1178,59.2031 L1178,58.1094 Q1178,56.8594 1178.5938,55.7656 Q1179.2031,54.6719 1180.25,54.0938 Q1181.3125,53.5 1182.5,53.5 Q1183.2188,53.5 1183.8438,53.75 Q1184.4688,54 1185,54.5 Z " fill="#000000"/><text fill="#000000" font-family="sans-serif" font-size="14" lengthAdjust="spacing" textLength="92" x="1197" y="63.7285">StatefulWidget</text><line style="stroke:#181818;stroke-width:0.5;" x1="1169" x2="1291" y1="74" y2="74"/><line style="stroke:#181818;stroke-width:0.5;" x1="1169" x2="1291" y1="82" y2="82"/></g><!--MD5=[9432619776e71801fd4b58594ef73518]
class flutter::src::widgets::framework.dart::State--><g id="elem_flutter::src::widgets::framework.dart::State"><rect fill="#F1F1F1" height="48" id="flutter::src::widgets::framework.dart::State" rx="2.5" ry="2.5" style="stroke:#181818;stroke-width:0.5;" width="65" x="1067.5" y="42"/><ellipse cx="1082.5" cy="58" fill="#ADD1B2" rx="11" ry="11" style="stroke:#181818;stroke-width:1.0;"/><path d="M1084.5,54.5 Q1084.7031,54 1084.9375,53.75 Q1085.1719,53.5 1085.4375,53.5 Q1085.9063,53.5 1086.2031,53.7813 Q1086.5,54.0625 1086.5,54.7188 L1086.5,56.2813 Q1086.5,56.9375 1086.2188,57.2188 Q1085.9375,57.5 1085.5,57.5 Q1085.1094,57.5 1084.8594,57.3281 Q1084.6094,57.1563 1084.5,56.7031 Q1084.4531,56.3906 1084.2813,56.2188 Q1083.9688,55.8906 1083.4063,55.7031 Q1082.8438,55.5 1082.2813,55.5 Q1081.5781,55.5 1080.9844,55.7813 Q1080.4063,56.0625 1079.9531,56.6875 Q1079.5,57.3125 1079.5,58.1719 L1079.5,59.0938 Q1079.5,60.125 1080.3438,60.8125 Q1081.1875,61.5 1082.6875,61.5 Q1083.5781,61.5 1084.2031,61.2969 Q1084.5625,61.1875 1084.9688,60.8281 Q1085.2344,60.625 1085.375,60.5625 Q1085.5156,60.5 1085.6875,60.5 Q1086.0156,60.5 1086.25,60.7656 Q1086.5,61.0156 1086.5,61.375 Q1086.5,61.7188 1086.1563,62.125 Q1085.6563,62.7188 1084.8594,63.0469 Q1083.8125,63.5 1082.5313,63.5 Q1081.0313,63.5 1079.8281,62.9063 Q1078.8594,62.4375 1078.1719,61.4219 Q1077.5,60.4063 1077.5,59.2031 L1077.5,58.1094 Q1077.5,56.8594 1078.0938,55.7656 Q1078.7031,54.6719 1079.75,54.0938 Q1080.8125,53.5 1082,53.5 Q1082.7188,53.5 1083.3438,53.75 Q1083.9688,54 1084.5,54.5 Z " fill="#000000"/><text fill="#000000" font-family="sans-serif" font-size="14" lengthAdjust="spacing" textLength="33" x="1096.5" y="63.7285">State</text><line style="stroke:#181818;stroke-width:0.5;" x1="1068.5" x2="1131.5" y1="74" y2="74"/><line style="stroke:#181818;stroke-width:0.5;" x1="1068.5" x2="1131.5" y1="82" y2="82"/></g><!--MD5=[9e867fba9217b2625850490d63de8b3c]
class dart::async::Timer--><g id="elem_dart::async::Timer"><rect fill="#F1F1F1" height="48" id="dart::async::Timer" rx="2.5" ry="2.5" style="stroke:#181818;stroke-width:0.5;" width="68" x="55" y="431"/><ellipse cx="70" cy="447" fill="#ADD1B2" rx="11" ry="11" style="stroke:#181818;stroke-width:1.0;"/><path d="M72,443.5 Q72.2031,443 72.4375,442.75 Q72.6719,442.5 72.9375,442.5 Q73.4063,442.5 73.7031,442.7813 Q74,443.0625 74,443.7188 L74,445.2813 Q74,445.9375 73.7188,446.2188 Q73.4375,446.5 73,446.5 Q72.6094,446.5 72.3594,446.3281 Q72.1094,446.1563 72,445.7031 Q71.9531,445.3906 71.7813,445.2188 Q71.4688,444.8906 70.9063,444.7031 Q70.3438,444.5 69.7813,444.5 Q69.0781,444.5 68.4844,444.7813 Q67.9063,445.0625 67.4531,445.6875 Q67,446.3125 67,447.1719 L67,448.0938 Q67,449.125 67.8438,449.8125 Q68.6875,450.5 70.1875,450.5 Q71.0781,450.5 71.7031,450.2969 Q72.0625,450.1875 72.4688,449.8281 Q72.7344,449.625 72.875,449.5625 Q73.0156,449.5 73.1875,449.5 Q73.5156,449.5 73.75,449.7656 Q74,450.0156 74,450.375 Q74,450.7188 73.6563,451.125 Q73.1563,451.7188 72.3594,452.0469 Q71.3125,452.5 70.0313,452.5 Q68.5313,452.5 67.3281,451.9063 Q66.3594,451.4375 65.6719,450.4219 Q65,449.4063 65,448.2031 L65,447.1094 Q65,445.8594 65.5938,444.7656 Q66.2031,443.6719 67.25,443.0938 Q68.3125,442.5 69.5,442.5 Q70.2188,442.5 70.8438,442.75 Q71.4688,443 72,443.5 Z " fill="#000000"/><text fill="#000000" font-family="sans-serif" font-size="14" lengthAdjust="spacing" textLength="36" x="84" y="452.7285">Timer</text><line style="stroke:#181818;stroke-width:0.5;" x1="56" x2="122" y1="463" y2="463"/><line style="stroke:#181818;stroke-width:0.5;" x1="56" x2="122" y1="471" y2="471"/></g><!--MD5=[23d6afb36e1d93a11527a6e1f3eff722]
class geolocator_platform_interface::src::models::position.dart::Position--><g id="elem_geolocator_platform_interface::src::models::position.dart::Position"><rect fill="#F1F1F1" height="48" id="geolocator_platform_interface::src::models::position.dart::Position" rx="2.5" ry="2.5" style="stroke:#181818;stroke-width:0.5;" width="82" x="179" y="431"/><ellipse cx="194" cy="447" fill="#ADD1B2" rx="11" ry="11" style="stroke:#181818;stroke-width:1.0;"/><path d="M196,443.5 Q196.2031,443 196.4375,442.75 Q196.6719,442.5 196.9375,442.5 Q197.4063,442.5 197.7031,442.7813 Q198,443.0625 198,443.7188 L198,445.2813 Q198,445.9375 197.7188,446.2188 Q197.4375,446.5 197,446.5 Q196.6094,446.5 196.3594,446.3281 Q196.1094,446.1563 196,445.7031 Q195.9531,445.3906 195.7813,445.2188 Q195.4688,444.8906 194.9063,444.7031 Q194.3438,444.5 193.7813,444.5 Q193.0781,444.5 192.4844,444.7813 Q191.9063,445.0625 191.4531,445.6875 Q191,446.3125 191,447.1719 L191,448.0938 Q191,449.125 191.8438,449.8125 Q192.6875,450.5 194.1875,450.5 Q195.0781,450.5 195.7031,450.2969 Q196.0625,450.1875 196.4688,449.8281 Q196.7344,449.625 196.875,449.5625 Q197.0156,449.5 197.1875,449.5 Q197.5156,449.5 197.75,449.7656 Q198,450.0156 198,450.375 Q198,450.7188 197.6563,451.125 Q197.1563,451.7188 196.3594,452.0469 Q195.3125,452.5 194.0313,452.5 Q192.5313,452.5 191.3281,451.9063 Q190.3594,451.4375 189.6719,450.4219 Q189,449.4063 189,448.2031 L189,447.1094 Q189,445.8594 189.5938,444.7656 Q190.2031,443.6719 191.25,443.0938 Q192.3125,442.5 193.5,442.5 Q194.2188,442.5 194.8438,442.75 Q195.4688,443 196,443.5 Z " fill="#000000"/><text fill="#000000" font-family="sans-serif" font-size="14" lengthAdjust="spacing" textLength="50" x="208" y="452.7285">Position</text><line style="stroke:#181818;stroke-width:0.5;" x1="180" x2="260" y1="463" y2="463"/><line style="stroke:#181818;stroke-width:0.5;" x1="180" x2="260" y1="471" y2="471"/></g><!--MD5=[313e5c9e49ada67d984877f63a2ccc66]
class rollcall::aulaProf.dart::AulaProf--><g id="elem_rollcall::aulaProf.dart::AulaProf"><rect codeLine="27" fill="#F1F1F1" height="118.4375" id="rollcall::aulaProf.dart::AulaProf" rx="2.5" ry="2.5" style="stroke:#181818;stroke-width:0.5;" width="208" x="676" y="201.5"/><ellipse cx="748.75" cy="217.5" fill="#ADD1B2" rx="11" ry="11" style="stroke:#181818;stroke-width:1.0;"/><path d="M750.75,214 Q750.9531,213.5 751.1875,213.25 Q751.4219,213 751.6875,213 Q752.1563,213 752.4531,213.2813 Q752.75,213.5625 752.75,214.2188 L752.75,215.7813 Q752.75,216.4375 752.4688,216.7188 Q752.1875,217 751.75,217 Q751.3594,217 751.1094,216.8281 Q750.8594,216.6563 750.75,216.2031 Q750.7031,215.8906 750.5313,215.7188 Q750.2188,215.3906 749.6563,215.2031 Q749.0938,215 748.5313,215 Q747.8281,215 747.2344,215.2813 Q746.6563,215.5625 746.2031,216.1875 Q745.75,216.8125 745.75,217.6719 L745.75,218.5938 Q745.75,219.625 746.5938,220.3125 Q747.4375,221 748.9375,221 Q749.8281,221 750.4531,220.7969 Q750.8125,220.6875 751.2188,220.3281 Q751.4844,220.125 751.625,220.0625 Q751.7656,220 751.9375,220 Q752.2656,220 752.5,220.2656 Q752.75,220.5156 752.75,220.875 Q752.75,221.2188 752.4063,221.625 Q751.9063,222.2188 751.1094,222.5469 Q750.0625,223 748.7813,223 Q747.2813,223 746.0781,222.4063 Q745.1094,221.9375 744.4219,220.9219 Q743.75,219.9063 743.75,218.7031 L743.75,217.6094 Q743.75,216.3594 744.3438,215.2656 Q744.9531,214.1719 746,213.5938 Q747.0625,213 748.25,213 Q748.9688,213 749.5938,213.25 Q750.2188,213.5 750.75,214 Z " fill="#000000"/><text fill="#000000" font-family="sans-serif" font-size="14" lengthAdjust="spacing" textLength="54" x="769.25" y="223.2285">AulaProf</text><line style="stroke:#181818;stroke-width:0.5;" x1="677" x2="883" y1="233.5" y2="233.5"/><ellipse cx="687" cy="247.8047" fill="none" rx="3" ry="3" style="stroke:#038048;stroke-width:1.0;"/><text fill="#000000" font-family="sans-serif" font-size="14" lengthAdjust="spacing" textLength="96" x="696" y="252.0332">String recLogin</text><ellipse cx="687" cy="265.4141" fill="none" rx="3" ry="3" style="stroke:#038048;stroke-width:1.0;"/><text fill="#000000" font-family="sans-serif" font-size="14" lengthAdjust="spacing" textLength="89" x="696" y="269.6426">String recAula</text><ellipse cx="687" cy="283.0234" fill="none" rx="3" ry="3" style="stroke:#038048;stroke-width:1.0;"/><text fill="#000000" font-family="sans-serif" font-size="14" lengthAdjust="spacing" textLength="97" x="696" y="287.252">String recNome</text><line style="stroke:#181818;stroke-width:0.5;" x1="677" x2="883" y1="294.3281" y2="294.3281"/><ellipse cx="687" cy="308.6328" fill="#84BE84" rx="3" ry="3" style="stroke:#038048;stroke-width:1.0;"/><text fill="#000000" font-family="sans-serif" font-size="14" lengthAdjust="spacing" textLength="182" x="696" y="312.8613">_AulaProfState createState()</text></g><!--MD5=[e68ca5d7bd70a45c3bc03a367c49171a]
class rollcall::aulaProf.dart::_AulaProfState--><g id="elem_rollcall::aulaProf.dart::_AulaProfState"><rect codeLine="36" fill="#F1F1F1" height="83.2188" id="rollcall::aulaProf.dart::_AulaProfState" rx="2.5" ry="2.5" style="stroke:#181818;stroke-width:0.5;" width="127" x="513.5" y="219"/><ellipse cx="528.5" cy="235" fill="#ADD1B2" rx="11" ry="11" style="stroke:#181818;stroke-width:1.0;"/><path d="M530.5,231.5 Q530.7031,231 530.9375,230.75 Q531.1719,230.5 531.4375,230.5 Q531.9063,230.5 532.2031,230.7813 Q532.5,231.0625 532.5,231.7188 L532.5,233.2813 Q532.5,233.9375 532.2188,234.2188 Q531.9375,234.5 531.5,234.5 Q531.1094,234.5 530.8594,234.3281 Q530.6094,234.1563 530.5,233.7031 Q530.4531,233.3906 530.2813,233.2188 Q529.9688,232.8906 529.4063,232.7031 Q528.8438,232.5 528.2813,232.5 Q527.5781,232.5 526.9844,232.7813 Q526.4063,233.0625 525.9531,233.6875 Q525.5,234.3125 525.5,235.1719 L525.5,236.0938 Q525.5,237.125 526.3438,237.8125 Q527.1875,238.5 528.6875,238.5 Q529.5781,238.5 530.2031,238.2969 Q530.5625,238.1875 530.9688,237.8281 Q531.2344,237.625 531.375,237.5625 Q531.5156,237.5 531.6875,237.5 Q532.0156,237.5 532.25,237.7656 Q532.5,238.0156 532.5,238.375 Q532.5,238.7188 532.1563,239.125 Q531.6563,239.7188 530.8594,240.0469 Q529.8125,240.5 528.5313,240.5 Q527.0313,240.5 525.8281,239.9063 Q524.8594,239.4375 524.1719,238.4219 Q523.5,237.4063 523.5,236.2031 L523.5,235.1094 Q523.5,233.8594 524.0938,232.7656 Q524.7031,231.6719 525.75,231.0938 Q526.8125,230.5 528,230.5 Q528.7188,230.5 529.3438,230.75 Q529.9688,231 530.5,231.5 Z " fill="#000000"/><text fill="#000000" font-family="sans-serif" font-size="14" lengthAdjust="spacing" textLength="95" x="542.5" y="240.7285">_AulaProfState</text><line style="stroke:#181818;stroke-width:0.5;" x1="514.5" x2="639.5" y1="251" y2="251"/><ellipse cx="524.5" cy="265.3047" fill="none" rx="3" ry="3" style="stroke:#038048;stroke-width:1.0;"/><text fill="#000000" font-family="sans-serif" font-size="14" lengthAdjust="spacing" textLength="74" x="533.5" y="269.5332">String aviso</text><line style="stroke:#181818;stroke-width:0.5;" x1="514.5" x2="639.5" y1="276.6094" y2="276.6094"/><ellipse cx="524.5" cy="290.9141" fill="#84BE84" rx="3" ry="3" style="stroke:#038048;stroke-width:1.0;"/><text fill="#000000" font-family="sans-serif" font-size="14" lengthAdjust="spacing" textLength="88" x="533.5" y="295.1426">Widget build()</text></g><!--MD5=[176cd25468503f6eff4cb9398b123605]
class rollcall::main.dart::RollCall--><g id="elem_rollcall::main.dart::RollCall"><rect codeLine="43" fill="#F1F1F1" height="65.6094" id="rollcall::main.dart::RollCall" rx="2.5" ry="2.5" style="stroke:#181818;stroke-width:0.5;" width="202" x="1185" y="227.5"/><ellipse cx="1257.75" cy="243.5" fill="#ADD1B2" rx="11" ry="11" style="stroke:#181818;stroke-width:1.0;"/><path d="M1259.75,240 Q1259.9531,239.5 1260.1875,239.25 Q1260.4219,239 1260.6875,239 Q1261.1563,239 1261.4531,239.2813 Q1261.75,239.5625 1261.75,240.2188 L1261.75,241.7813 Q1261.75,242.4375 1261.4688,242.7188 Q1261.1875,243 1260.75,243 Q1260.3594,243 1260.1094,242.8281 Q1259.8594,242.6563 1259.75,242.2031 Q1259.7031,241.8906 1259.5313,241.7188 Q1259.2188,241.3906 1258.6563,241.2031 Q1258.0938,241 1257.5313,241 Q1256.8281,241 1256.2344,241.2813 Q1255.6563,241.5625 1255.2031,242.1875 Q1254.75,242.8125 1254.75,243.6719 L1254.75,244.5938 Q1254.75,245.625 1255.5938,246.3125 Q1256.4375,247 1257.9375,247 Q1258.8281,247 1259.4531,246.7969 Q1259.8125,246.6875 1260.2188,246.3281 Q1260.4844,246.125 1260.625,246.0625 Q1260.7656,246 1260.9375,246 Q1261.2656,246 1261.5,246.2656 Q1261.75,246.5156 1261.75,246.875 Q1261.75,247.2188 1261.4063,247.625 Q1260.9063,248.2188 1260.1094,248.5469 Q1259.0625,249 1257.7813,249 Q1256.2813,249 1255.0781,248.4063 Q1254.1094,247.9375 1253.4219,246.9219 Q1252.75,245.9063 1252.75,244.7031 L1252.75,243.6094 Q1252.75,242.3594 1253.3438,241.2656 Q1253.9531,240.1719 1255,239.5938 Q1256.0625,239 1257.25,239 Q1257.9688,239 1258.5938,239.25 Q1259.2188,239.5 1259.75,240 Z " fill="#000000"/><text fill="#000000" font-family="sans-serif" font-size="14" lengthAdjust="spacing" textLength="48" x="1278.25" y="249.2285">RollCall</text><line style="stroke:#181818;stroke-width:0.5;" x1="1186" x2="1386" y1="259.5" y2="259.5"/><line style="stroke:#181818;stroke-width:0.5;" x1="1186" x2="1386" y1="267.5" y2="267.5"/><ellipse cx="1196" cy="281.8047" fill="#84BE84" rx="3" ry="3" style="stroke:#038048;stroke-width:1.0;"/><text fill="#000000" font-family="sans-serif" font-size="14" lengthAdjust="spacing" textLength="176" x="1205" y="286.0332">_RollCallState createState()</text></g><!--MD5=[a6decbd83ef6a7c568c8b3afa2302586]
class rollcall::main.dart::_RollCallState--><g id="elem_rollcall::main.dart::_RollCallState"><rect codeLine="49" fill="#F1F1F1" height="136.0469" id="rollcall::main.dart::_RollCallState" rx="2.5" ry="2.5" style="stroke:#181818;stroke-width:0.5;" width="209" x="940.5" y="192.5"/><ellipse cx="996.25" cy="208.5" fill="#ADD1B2" rx="11" ry="11" style="stroke:#181818;stroke-width:1.0;"/><path d="M998.25,205 Q998.4531,204.5 998.6875,204.25 Q998.9219,204 999.1875,204 Q999.6563,204 999.9531,204.2813 Q1000.25,204.5625 1000.25,205.2188 L1000.25,206.7813 Q1000.25,207.4375 999.9688,207.7188 Q999.6875,208 999.25,208 Q998.8594,208 998.6094,207.8281 Q998.3594,207.6563 998.25,207.2031 Q998.2031,206.8906 998.0313,206.7188 Q997.7188,206.3906 997.1563,206.2031 Q996.5938,206 996.0313,206 Q995.3281,206 994.7344,206.2813 Q994.1563,206.5625 993.7031,207.1875 Q993.25,207.8125 993.25,208.6719 L993.25,209.5938 Q993.25,210.625 994.0938,211.3125 Q994.9375,212 996.4375,212 Q997.3281,212 997.9531,211.7969 Q998.3125,211.6875 998.7188,211.3281 Q998.9844,211.125 999.125,211.0625 Q999.2656,211 999.4375,211 Q999.7656,211 1000,211.2656 Q1000.25,211.5156 1000.25,211.875 Q1000.25,212.2188 999.9063,212.625 Q999.4063,213.2188 998.6094,213.5469 Q997.5625,214 996.2813,214 Q994.7813,214 993.5781,213.4063 Q992.6094,212.9375 991.9219,211.9219 Q991.25,210.9063 991.25,209.7031 L991.25,208.6094 Q991.25,207.3594 991.8438,206.2656 Q992.4531,205.1719 993.5,204.5938 Q994.5625,204 995.75,204 Q996.4688,204 997.0938,204.25 Q997.7188,204.5 998.25,205 Z " fill="#000000"/><text fill="#000000" font-family="sans-serif" font-size="14" lengthAdjust="spacing" textLength="89" x="1016.75" y="214.2285">_RollCallState</text><line style="stroke:#181818;stroke-width:0.5;" x1="941.5" x2="1148.5" y1="224.5" y2="224.5"/><ellipse cx="951.5" cy="238.8047" fill="none" rx="3" ry="3" style="stroke:#038048;stroke-width:1.0;"/><text fill="#000000" font-family="sans-serif" font-size="14" lengthAdjust="spacing" textLength="183" x="960.5" y="243.0332">TextEditingController usuario</text><ellipse cx="951.5" cy="256.4141" fill="none" rx="3" ry="3" style="stroke:#038048;stroke-width:1.0;"/><text fill="#000000" font-family="sans-serif" font-size="14" lengthAdjust="spacing" textLength="175" x="960.5" y="260.6426">TextEditingController senha</text><ellipse cx="951.5" cy="274.0234" fill="none" rx="3" ry="3" style="stroke:#038048;stroke-width:1.0;"/><text fill="#000000" font-family="sans-serif" font-size="14" lengthAdjust="spacing" textLength="67" x="960.5" y="278.252">String erro</text><line style="stroke:#181818;stroke-width:0.5;" x1="941.5" x2="1148.5" y1="285.3281" y2="285.3281"/><ellipse cx="951.5" cy="299.6328" fill="#84BE84" rx="3" ry="3" style="stroke:#038048;stroke-width:1.0;"/><text fill="#000000" font-family="sans-serif" font-size="14" lengthAdjust="spacing" textLength="83" x="960.5" y="303.8613">void Errado()</text><ellipse cx="951.5" cy="317.2422" fill="#84BE84" rx="3" ry="3" style="stroke:#038048;stroke-width:1.0;"/><text fill="#000000" font-family="sans-serif" font-size="14" lengthAdjust="spacing" textLength="88" x="960.5" y="321.4707">Widget build()</text></g><!--MD5=[40b395e1d1237e82679a917749c88d40]
class flutter::src::widgets::editable_text.dart::TextEditingController--><g id="elem_flutter::src::widgets::editable_text.dart::TextEditingController"><rect fill="#F1F1F1" height="48" id="flutter::src::widgets::editable_text.dart::TextEditingController" rx="2.5" ry="2.5" style="stroke:#181818;stroke-width:0.5;" width="164" x="963" y="431"/><ellipse cx="978" cy="447" fill="#ADD1B2" rx="11" ry="11" style="stroke:#181818;stroke-width:1.0;"/><path d="M980,443.5 Q980.2031,443 980.4375,442.75 Q980.6719,442.5 980.9375,442.5 Q981.4063,442.5 981.7031,442.7813 Q982,443.0625 982,443.7188 L982,445.2813 Q982,445.9375 981.7188,446.2188 Q981.4375,446.5 981,446.5 Q980.6094,446.5 980.3594,446.3281 Q980.1094,446.1563 980,445.7031 Q979.9531,445.3906 979.7813,445.2188 Q979.4688,444.8906 978.9063,444.7031 Q978.3438,444.5 977.7813,444.5 Q977.0781,444.5 976.4844,444.7813 Q975.9063,445.0625 975.4531,445.6875 Q975,446.3125 975,447.1719 L975,448.0938 Q975,449.125 975.8438,449.8125 Q976.6875,450.5 978.1875,450.5 Q979.0781,450.5 979.7031,450.2969 Q980.0625,450.1875 980.4688,449.8281 Q980.7344,449.625 980.875,449.5625 Q981.0156,449.5 981.1875,449.5 Q981.5156,449.5 981.75,449.7656 Q982,450.0156 982,450.375 Q982,450.7188 981.6563,451.125 Q981.1563,451.7188 980.3594,452.0469 Q979.3125,452.5 978.0313,452.5 Q976.5313,452.5 975.3281,451.9063 Q974.3594,451.4375 973.6719,450.4219 Q973,449.4063 973,448.2031 L973,447.1094 Q973,445.8594 973.5938,444.7656 Q974.2031,443.6719 975.25,443.0938 Q976.3125,442.5 977.5,442.5 Q978.2188,442.5 978.8438,442.75 Q979.4688,443 980,443.5 Z " fill="#000000"/><text fill="#000000" font-family="sans-serif" font-size="14" lengthAdjust="spacing" textLength="132" x="992" y="452.7285">TextEditingController</text><line style="stroke:#181818;stroke-width:0.5;" x1="964" x2="1126" y1="463" y2="463"/><line style="stroke:#181818;stroke-width:0.5;" x1="964" x2="1126" y1="471" y2="471"/></g><!--MD5=[af46cb999cc6b741548a93d47800920c]
class rollcall::telaAluno.dart::telaAluno--><g id="elem_rollcall::telaAluno.dart::telaAluno"><rect codeLine="60" fill="#F1F1F1" height="83.2188" id="rollcall::telaAluno.dart::telaAluno" rx="2.5" ry="2.5" style="stroke:#181818;stroke-width:0.5;" width="213" x="1655.5" y="219"/><ellipse cx="1728.25" cy="235" fill="#ADD1B2" rx="11" ry="11" style="stroke:#181818;stroke-width:1.0;"/><path d="M1730.25,231.5 Q1730.4531,231 1730.6875,230.75 Q1730.9219,230.5 1731.1875,230.5 Q1731.6563,230.5 1731.9531,230.7813 Q1732.25,231.0625 1732.25,231.7188 L1732.25,233.2813 Q1732.25,233.9375 1731.9688,234.2188 Q1731.6875,234.5 1731.25,234.5 Q1730.8594,234.5 1730.6094,234.3281 Q1730.3594,234.1563 1730.25,233.7031 Q1730.2031,233.3906 1730.0313,233.2188 Q1729.7188,232.8906 1729.1563,232.7031 Q1728.5938,232.5 1728.0313,232.5 Q1727.3281,232.5 1726.7344,232.7813 Q1726.1563,233.0625 1725.7031,233.6875 Q1725.25,234.3125 1725.25,235.1719 L1725.25,236.0938 Q1725.25,237.125 1726.0938,237.8125 Q1726.9375,238.5 1728.4375,238.5 Q1729.3281,238.5 1729.9531,238.2969 Q1730.3125,238.1875 1730.7188,237.8281 Q1730.9844,237.625 1731.125,237.5625 Q1731.2656,237.5 1731.4375,237.5 Q1731.7656,237.5 1732,237.7656 Q1732.25,238.0156 1732.25,238.375 Q1732.25,238.7188 1731.9063,239.125 Q1731.4063,239.7188 1730.6094,240.0469 Q1729.5625,240.5 1728.2813,240.5 Q1726.7813,240.5 1725.5781,239.9063 Q1724.6094,239.4375 1723.9219,238.4219 Q1723.25,237.4063 1723.25,236.2031 L1723.25,235.1094 Q1723.25,233.8594 1723.8438,232.7656 Q1724.4531,231.6719 1725.5,231.0938 Q1726.5625,230.5 1727.75,230.5 Q1728.4688,230.5 1729.0938,230.75 Q1729.7188,231 1730.25,231.5 Z " fill="#000000"/><text fill="#000000" font-family="sans-serif" font-size="14" lengthAdjust="spacing" textLength="59" x="1748.75" y="240.7285">telaAluno</text><line style="stroke:#181818;stroke-width:0.5;" x1="1656.5" x2="1867.5" y1="251" y2="251"/><ellipse cx="1666.5" cy="265.3047" fill="none" rx="3" ry="3" style="stroke:#038048;stroke-width:1.0;"/><text fill="#000000" font-family="sans-serif" font-size="14" lengthAdjust="spacing" textLength="96" x="1675.5" y="269.5332">String recebido</text><line style="stroke:#181818;stroke-width:0.5;" x1="1656.5" x2="1867.5" y1="276.6094" y2="276.6094"/><ellipse cx="1666.5" cy="290.9141" fill="#84BE84" rx="3" ry="3" style="stroke:#038048;stroke-width:1.0;"/><text fill="#000000" font-family="sans-serif" font-size="14" lengthAdjust="spacing" textLength="187" x="1675.5" y="295.1426">_telaAlunoState createState()</text></g><!--MD5=[105bd5d5b7c3b221e930a394eeb6a529]
class rollcall::telaAluno.dart::_telaAlunoState--><g id="elem_rollcall::telaAluno.dart::_telaAlunoState"><rect codeLine="67" fill="#F1F1F1" height="100.8281" id="rollcall::telaAluno.dart::_telaAlunoState" rx="2.5" ry="2.5" style="stroke:#181818;stroke-width:0.5;" width="177" x="1443.5" y="210"/><ellipse cx="1478.75" cy="226" fill="#ADD1B2" rx="11" ry="11" style="stroke:#181818;stroke-width:1.0;"/><path d="M1480.75,222.5 Q1480.9531,222 1481.1875,221.75 Q1481.4219,221.5 1481.6875,221.5 Q1482.1563,221.5 1482.4531,221.7813 Q1482.75,222.0625 1482.75,222.7188 L1482.75,224.2813 Q1482.75,224.9375 1482.4688,225.2188 Q1482.1875,225.5 1481.75,225.5 Q1481.3594,225.5 1481.1094,225.3281 Q1480.8594,225.1563 1480.75,224.7031 Q1480.7031,224.3906 1480.5313,224.2188 Q1480.2188,223.8906 1479.6563,223.7031 Q1479.0938,223.5 1478.5313,223.5 Q1477.8281,223.5 1477.2344,223.7813 Q1476.6563,224.0625 1476.2031,224.6875 Q1475.75,225.3125 1475.75,226.1719 L1475.75,227.0938 Q1475.75,228.125 1476.5938,228.8125 Q1477.4375,229.5 1478.9375,229.5 Q1479.8281,229.5 1480.4531,229.2969 Q1480.8125,229.1875 1481.2188,228.8281 Q1481.4844,228.625 1481.625,228.5625 Q1481.7656,228.5 1481.9375,228.5 Q1482.2656,228.5 1482.5,228.7656 Q1482.75,229.0156 1482.75,229.375 Q1482.75,229.7188 1482.4063,230.125 Q1481.9063,230.7188 1481.1094,231.0469 Q1480.0625,231.5 1478.7813,231.5 Q1477.2813,231.5 1476.0781,230.9063 Q1475.1094,230.4375 1474.4219,229.4219 Q1473.75,228.4063 1473.75,227.2031 L1473.75,226.1094 Q1473.75,224.8594 1474.3438,223.7656 Q1474.9531,222.6719 1476,222.0938 Q1477.0625,221.5 1478.25,221.5 Q1478.9688,221.5 1479.5938,221.75 Q1480.2188,222 1480.75,222.5 Z " fill="#000000"/><text fill="#000000" font-family="sans-serif" font-size="14" lengthAdjust="spacing" textLength="100" x="1497.25" y="231.7285">_telaAlunoState</text><line style="stroke:#181818;stroke-width:0.5;" x1="1444.5" x2="1619.5" y1="242" y2="242"/><line style="stroke:#181818;stroke-width:0.5;" x1="1444.5" x2="1619.5" y1="250" y2="250"/><ellipse cx="1454.5" cy="264.3047" fill="#84BE84" rx="3" ry="3" style="stroke:#038048;stroke-width:1.0;"/><text fill="#000000" font-family="sans-serif" font-size="14" lengthAdjust="spacing" textLength="91" x="1463.5" y="268.5332">void initState()</text><ellipse cx="1454.5" cy="281.9141" fill="#84BE84" rx="3" ry="3" style="stroke:#038048;stroke-width:1.0;"/><text fill="#000000" font-family="sans-serif" font-size="14" lengthAdjust="spacing" textLength="151" x="1463.5" y="286.1426">Future&lt;void&gt; conexao()</text><ellipse cx="1454.5" cy="299.5234" fill="#84BE84" rx="3" ry="3" style="stroke:#038048;stroke-width:1.0;"/><text fill="#000000" font-family="sans-serif" font-size="14" lengthAdjust="spacing" textLength="88" x="1463.5" y="303.752">Widget build()</text></g><!--MD5=[e282f96fc5ae87cc246fb77bd16ab160]
class rollcall::telaProfessor.dart::telaProfessor--><g id="elem_rollcall::telaProfessor.dart::telaProfessor"><rect codeLine="75" fill="#F1F1F1" height="83.2188" id="rollcall::telaProfessor.dart::telaProfessor" rx="2.5" ry="2.5" style="stroke:#181818;stroke-width:0.5;" width="238" x="2138" y="219"/><ellipse cx="2210.75" cy="235" fill="#ADD1B2" rx="11" ry="11" style="stroke:#181818;stroke-width:1.0;"/><path d="M2212.75,231.5 Q2212.9531,231 2213.1875,230.75 Q2213.4219,230.5 2213.6875,230.5 Q2214.1563,230.5 2214.4531,230.7813 Q2214.75,231.0625 2214.75,231.7188 L2214.75,233.2813 Q2214.75,233.9375 2214.4688,234.2188 Q2214.1875,234.5 2213.75,234.5 Q2213.3594,234.5 2213.1094,234.3281 Q2212.8594,234.1563 2212.75,233.7031 Q2212.7031,233.3906 2212.5313,233.2188 Q2212.2188,232.8906 2211.6563,232.7031 Q2211.0938,232.5 2210.5313,232.5 Q2209.8281,232.5 2209.2344,232.7813 Q2208.6563,233.0625 2208.2031,233.6875 Q2207.75,234.3125 2207.75,235.1719 L2207.75,236.0938 Q2207.75,237.125 2208.5938,237.8125 Q2209.4375,238.5 2210.9375,238.5 Q2211.8281,238.5 2212.4531,238.2969 Q2212.8125,238.1875 2213.2188,237.8281 Q2213.4844,237.625 2213.625,237.5625 Q2213.7656,237.5 2213.9375,237.5 Q2214.2656,237.5 2214.5,237.7656 Q2214.75,238.0156 2214.75,238.375 Q2214.75,238.7188 2214.4063,239.125 Q2213.9063,239.7188 2213.1094,240.0469 Q2212.0625,240.5 2210.7813,240.5 Q2209.2813,240.5 2208.0781,239.9063 Q2207.1094,239.4375 2206.4219,238.4219 Q2205.75,237.4063 2205.75,236.2031 L2205.75,235.1094 Q2205.75,233.8594 2206.3438,232.7656 Q2206.9531,231.6719 2208,231.0938 Q2209.0625,230.5 2210.25,230.5 Q2210.9688,230.5 2211.5938,230.75 Q2212.2188,231 2212.75,231.5 Z " fill="#000000"/><text fill="#000000" font-family="sans-serif" font-size="14" lengthAdjust="spacing" textLength="84" x="2231.25" y="240.7285">telaProfessor</text><line style="stroke:#181818;stroke-width:0.5;" x1="2139" x2="2375" y1="251" y2="251"/><ellipse cx="2149" cy="265.3047" fill="none" rx="3" ry="3" style="stroke:#038048;stroke-width:1.0;"/><text fill="#000000" font-family="sans-serif" font-size="14" lengthAdjust="spacing" textLength="96" x="2158" y="269.5332">String recebido</text><line style="stroke:#181818;stroke-width:0.5;" x1="2139" x2="2375" y1="276.6094" y2="276.6094"/><ellipse cx="2149" cy="290.9141" fill="#84BE84" rx="3" ry="3" style="stroke:#038048;stroke-width:1.0;"/><text fill="#000000" font-family="sans-serif" font-size="14" lengthAdjust="spacing" textLength="212" x="2158" y="295.1426">_telaProfessorState createState()</text></g><!--MD5=[ff4b12bcc49d224bba5cc36b740a1eda]
class rollcall::telaProfessor.dart::_telaProfessorState--><g id="elem_rollcall::telaProfessor.dart::_telaProfessorState"><rect codeLine="82" fill="#F1F1F1" height="100.8281" id="rollcall::telaProfessor.dart::_telaProfessorState" rx="2.5" ry="2.5" style="stroke:#181818;stroke-width:0.5;" width="177" x="1925.5" y="210"/><ellipse cx="1949.5" cy="226" fill="#ADD1B2" rx="11" ry="11" style="stroke:#181818;stroke-width:1.0;"/><path d="M1951.5,222.5 Q1951.7031,222 1951.9375,221.75 Q1952.1719,221.5 1952.4375,221.5 Q1952.9063,221.5 1953.2031,221.7813 Q1953.5,222.0625 1953.5,222.7188 L1953.5,224.2813 Q1953.5,224.9375 1953.2188,225.2188 Q1952.9375,225.5 1952.5,225.5 Q1952.1094,225.5 1951.8594,225.3281 Q1951.6094,225.1563 1951.5,224.7031 Q1951.4531,224.3906 1951.2813,224.2188 Q1950.9688,223.8906 1950.4063,223.7031 Q1949.8438,223.5 1949.2813,223.5 Q1948.5781,223.5 1947.9844,223.7813 Q1947.4063,224.0625 1946.9531,224.6875 Q1946.5,225.3125 1946.5,226.1719 L1946.5,227.0938 Q1946.5,228.125 1947.3438,228.8125 Q1948.1875,229.5 1949.6875,229.5 Q1950.5781,229.5 1951.2031,229.2969 Q1951.5625,229.1875 1951.9688,228.8281 Q1952.2344,228.625 1952.375,228.5625 Q1952.5156,228.5 1952.6875,228.5 Q1953.0156,228.5 1953.25,228.7656 Q1953.5,229.0156 1953.5,229.375 Q1953.5,229.7188 1953.1563,230.125 Q1952.6563,230.7188 1951.8594,231.0469 Q1950.8125,231.5 1949.5313,231.5 Q1948.0313,231.5 1946.8281,230.9063 Q1945.8594,230.4375 1945.1719,229.4219 Q1944.5,228.4063 1944.5,227.2031 L1944.5,226.1094 Q1944.5,224.8594 1945.0938,223.7656 Q1945.7031,222.6719 1946.75,222.0938 Q1947.8125,221.5 1949,221.5 Q1949.7188,221.5 1950.3438,221.75 Q1950.9688,222 1951.5,222.5 Z " fill="#000000"/><text fill="#000000" font-family="sans-serif" font-size="14" lengthAdjust="spacing" textLength="125" x="1965.5" y="231.7285">_telaProfessorState</text><line style="stroke:#181818;stroke-width:0.5;" x1="1926.5" x2="2101.5" y1="242" y2="242"/><line style="stroke:#181818;stroke-width:0.5;" x1="1926.5" x2="2101.5" y1="250" y2="250"/><ellipse cx="1936.5" cy="264.3047" fill="#84BE84" rx="3" ry="3" style="stroke:#038048;stroke-width:1.0;"/><text fill="#000000" font-family="sans-serif" font-size="14" lengthAdjust="spacing" textLength="91" x="1945.5" y="268.5332">void initState()</text><ellipse cx="1936.5" cy="281.9141" fill="#84BE84" rx="3" ry="3" style="stroke:#038048;stroke-width:1.0;"/><text fill="#000000" font-family="sans-serif" font-size="14" lengthAdjust="spacing" textLength="151" x="1945.5" y="286.1426">Future&lt;void&gt; conexao()</text><ellipse cx="1936.5" cy="299.5234" fill="#84BE84" rx="3" ry="3" style="stroke:#038048;stroke-width:1.0;"/><text fill="#000000" font-family="sans-serif" font-size="14" lengthAdjust="spacing" textLength="88" x="1945.5" y="303.752">Widget build()</text></g><!--MD5=[b95a8e2c104097758b20dbe79b1ca76e]
reverse link flutter::src::widgets::framework.dart::StatefulWidget to rollcall::aulaAlu.dart::AulaAlu--><g id="link_flutter::src::widgets::framework.dart::StatefulWidget_rollcall::aulaAlu.dart::AulaAlu"><path codeLine="10" d="M1182.15,100.44 C1171.96,106 1160.96,110.95 1150,114 C1115.05,123.74 530.52,108.12 497,122 C457.51,138.35 422.97,171.52 397.96,201.18 " fill="none" id="flutter::src::widgets::framework.dart::StatefulWidget-backto-rollcall::aulaAlu.dart::AulaAlu" style="stroke:#181818;stroke-width:1.0;"/><polygon fill="none" points="1178.67,94.36,1199.41,90.04,1185.89,106.35,1178.67,94.36" style="stroke:#181818;stroke-width:1.0;"/></g><!--MD5=[55733791b150eecac18a907947268b30]
reverse link rollcall::aulaAlu.dart::_AulaAluState to dart::async::Timer--><g id="link_rollcall::aulaAlu.dart::_AulaAluState_dart::async::Timer"><path codeLine="23" d="M103.29,368.05 C99.35,391.76 95.54,414.63 92.85,430.81 " fill="none" id="rollcall::aulaAlu.dart::_AulaAluState-backto-dart::async::Timer" style="stroke:#181818;stroke-width:1.0;"/><polygon fill="none" points="105.42,355.21,100.4918,360.4743,103.4558,367.0481,108.3839,361.7838,105.42,355.21" style="stroke:#181818;stroke-width:1.0;"/></g><!--MD5=[6df8fe10e39afea6a3f77e62e5bb6326]
reverse link rollcall::aulaAlu.dart::_AulaAluState to geolocator_platform_interface::src::models::position.dart::Position--><g id="link_rollcall::aulaAlu.dart::_AulaAluState_geolocator_platform_interface::src::models::position.dart::Position"><path codeLine="24" d="M175.29,367.06 C187.67,391.13 199.64,414.41 208.07,430.81 " fill="none" id="rollcall::aulaAlu.dart::_AulaAluState-backto-geolocator_platform_interface::src::models::position.dart::Position" style="stroke:#181818;stroke-width:1.0;"/><polygon fill="none" points="169.19,355.21,168.3729,362.3747,174.6722,365.8845,175.4893,358.7199,169.19,355.21" style="stroke:#181818;stroke-width:1.0;"/></g><!--MD5=[5796f414aef482ab75e659bd050ac808]
reverse link flutter::src::widgets::framework.dart::State to rollcall::aulaAlu.dart::_AulaAluState--><g id="link_flutter::src::widgets::framework.dart::State_rollcall::aulaAlu.dart::_AulaAluState"><path codeLine="25" d="M1047.28,67.98 C871.17,71.58 310.19,85.81 238,122 C217.13,132.47 198.49,148.49 182.56,165.94 " fill="none" id="flutter::src::widgets::framework.dart::State-backto-rollcall::aulaAlu.dart::_AulaAluState" style="stroke:#181818;stroke-width:1.0;"/><polygon fill="none" points="1047.34,60.98,1067.48,67.58,1047.62,74.98,1047.34,60.98" style="stroke:#181818;stroke-width:1.0;"/></g><!--MD5=[243360dd9ba2b83d5e68ab13ed7d7b82]
reverse link flutter::src::widgets::framework.dart::StatefulWidget to rollcall::aulaProf.dart::AulaProf--><g id="link_flutter::src::widgets::framework.dart::StatefulWidget_rollcall::aulaProf.dart::AulaProf"><path codeLine="34" d="M1181.82,100.39 C1171.71,105.91 1160.83,110.85 1150,114 C1101.75,128.05 970.31,102.48 924,122 C884.34,138.71 849.2,171.69 823.56,201.16 " fill="none" id="flutter::src::widgets::framework.dart::StatefulWidget-backto-rollcall::aulaProf.dart::AulaProf" style="stroke:#181818;stroke-width:1.0;"/><polygon fill="none" points="1178.23,94.38,1198.98,90.1,1185.43,106.39,1178.23,94.38" style="stroke:#181818;stroke-width:1.0;"/></g><!--MD5=[cc6098c156ea776d8ece03636187f9c7]
reverse link flutter::src::widgets::framework.dart::State to rollcall::aulaProf.dart::_AulaProfState--><g id="link_flutter::src::widgets::framework.dart::State_rollcall::aulaProf.dart::_AulaProfState"><path codeLine="41" d="M1047.37,67.88 C944.63,70.5 721.95,80.89 659,122 C624.56,144.49 602.53,186.94 590.08,218.74 " fill="none" id="flutter::src::widgets::framework.dart::State-backto-rollcall::aulaProf.dart::_AulaProfState" style="stroke:#181818;stroke-width:1.0;"/><polygon fill="none" points="1047.21,60.88,1067.37,67.43,1047.53,74.88,1047.21,60.88" style="stroke:#181818;stroke-width:1.0;"/></g><!--MD5=[6b67bd87725ba7b34cc770dd69b0768b]
reverse link flutter::src::widgets::framework.dart::StatefulWidget to rollcall::main.dart::RollCall--><g id="link_flutter::src::widgets::framework.dart::StatefulWidget_rollcall::main.dart::RollCall"><path codeLine="47" d="M1242.43,109.72 C1252.75,145.22 1267.23,194.97 1276.61,227.22 " fill="none" id="flutter::src::widgets::framework.dart::StatefulWidget-backto-rollcall::main.dart::RollCall" style="stroke:#181818;stroke-width:1.0;"/><polygon fill="none" points="1235.62,111.38,1236.75,90.22,1249.06,107.47,1235.62,111.38" style="stroke:#181818;stroke-width:1.0;"/></g><!--MD5=[9a3fffb80f5253139313359871bb5642]
reverse link rollcall::main.dart::_RollCallState to flutter::src::widgets::editable_text.dart::TextEditingController--><g id="link_rollcall::main.dart::_RollCallState_flutter::src::widgets::editable_text.dart::TextEditingController"><path codeLine="57" d="M1045,341.71 C1045,373.95 1045,408.67 1045,430.83 " fill="none" id="rollcall::main.dart::_RollCallState-backto-flutter::src::widgets::editable_text.dart::TextEditingController" style="stroke:#181818;stroke-width:1.0;"/><polygon fill="none" points="1045,328.56,1041,334.56,1045,340.56,1049,334.56,1045,328.56" style="stroke:#181818;stroke-width:1.0;"/></g><!--MD5=[3d8e23cb8d883fae3355ff23249bdde3]
reverse link flutter::src::widgets::framework.dart::State to rollcall::main.dart::_RollCallState--><g id="link_flutter::src::widgets::framework.dart::State_rollcall::main.dart::_RollCallState"><path codeLine="58" d="M1087.83,109.59 C1080.89,133.88 1072.04,164.88 1064.18,192.37 " fill="none" id="flutter::src::widgets::framework.dart::State-backto-rollcall::main.dart::_RollCallState" style="stroke:#181818;stroke-width:1.0;"/><polygon fill="none" points="1081.14,107.53,1093.37,90.22,1094.6,111.37,1081.14,107.53" style="stroke:#181818;stroke-width:1.0;"/></g><!--MD5=[1803ea4bff558d35a34ecaede65387b1]
reverse link flutter::src::widgets::framework.dart::StatefulWidget to rollcall::telaAluno.dart::telaAluno--><g id="link_flutter::src::widgets::framework.dart::StatefulWidget_rollcall::telaAluno.dart::telaAluno"><path codeLine="65" d="M1312.23,71.41 C1414.71,78.04 1583.07,93.02 1638,122 C1680.22,144.28 1715.18,186.98 1737.1,218.91 " fill="none" id="flutter::src::widgets::framework.dart::StatefulWidget-backto-rollcall::telaAluno.dart::telaAluno" style="stroke:#181818;stroke-width:1.0;"/><polygon fill="none" points="1311.57,78.38,1292.05,70.15,1312.44,64.41,1311.57,78.38" style="stroke:#181818;stroke-width:1.0;"/></g><!--MD5=[7f60203d29af2bc19b46c25917db978b]
reverse link flutter::src::widgets::framework.dart::State to rollcall::telaAluno.dart::_telaAlunoState--><g id="link_flutter::src::widgets::framework.dart::State_rollcall::telaAluno.dart::_telaAlunoState"><path codeLine="73" d="M1133.32,103.56 C1138.81,107.76 1144.76,111.45 1151,114 C1176.93,124.6 1377.47,110.46 1403,122 C1443.86,140.47 1477.93,178.55 1500.78,209.96 " fill="none" id="flutter::src::widgets::framework.dart::State-backto-rollcall::telaAluno.dart::_telaAlunoState" style="stroke:#181818;stroke-width:1.0;"/><polygon fill="none" points="1128.52,108.66,1118.41,90.04,1137.92,98.29,1128.52,108.66" style="stroke:#181818;stroke-width:1.0;"/></g><!--MD5=[acee3bc76a470bfd8636fe8005e153e3]
reverse link flutter::src::widgets::framework.dart::StatefulWidget to rollcall::telaProfessor.dart::telaProfessor--><g id="link_flutter::src::widgets::framework.dart::StatefulWidget_rollcall::telaProfessor.dart::telaProfessor"><path codeLine="80" d="M1312.31,68.77 C1518.82,73.66 2047.59,89.27 2120,122 C2165.91,142.75 2204.92,186.16 2229.43,218.68 " fill="none" id="flutter::src::widgets::framework.dart::StatefulWidget-backto-rollcall::telaProfessor.dart::telaProfessor" style="stroke:#181818;stroke-width:1.0;"/><polygon fill="none" points="1312.03,75.76,1292.2,68.3,1312.36,61.76,1312.03,75.76" style="stroke:#181818;stroke-width:1.0;"/></g><!--MD5=[491880df92e01625548504493fa2da02]
reverse link flutter::src::widgets::framework.dart::State to rollcall::telaProfessor.dart::_telaProfessorState--><g id="link_flutter::src::widgets::framework.dart::State_rollcall::telaProfessor.dart::_telaProfessorState"><path codeLine="88" d="M1133.27,103.68 C1138.77,107.87 1144.73,111.51 1151,114 C1188.91,129.04 1847.67,105.59 1885,122 C1926.05,140.04 1960.11,178.15 1982.9,209.69 " fill="none" id="flutter::src::widgets::framework.dart::State-backto-rollcall::telaProfessor.dart::_telaProfessorState" style="stroke:#181818;stroke-width:1.0;"/><polygon fill="none" points="1128.47,108.78,1118.36,90.16,1137.88,98.41,1128.47,108.78" style="stroke:#181818;stroke-width:1.0;"/></g><!--MD5=[336995d6c0598855303b86cc26a9be40]
@startuml
set namespaceSeparator ::

class "rollcall::aulaAlu.dart::AulaAlu" {
  +String recLogin
  +String recAula
  +String recNome
  +_AulaAluState createState()
}

"flutter::src::widgets::framework.dart::StatefulWidget" <|- - "rollcall::aulaAlu.dart::AulaAlu"

class "rollcall::aulaAlu.dart::_AulaAluState" {
  +Timer reload
  +String dProfessor
  +Position? aPos
  +void initState()
  +Future<void> conexao()
  +Future<void> responde()
  +Future<Position> Posicao()
  +Widget build()
}

"rollcall::aulaAlu.dart::_AulaAluState" o- - "dart::async::Timer"
"rollcall::aulaAlu.dart::_AulaAluState" o- - "geolocator_platform_interface::src::models::position.dart::Position"
"flutter::src::widgets::framework.dart::State" <|- - "rollcall::aulaAlu.dart::_AulaAluState"

class "rollcall::aulaProf.dart::AulaProf" {
  +String recLogin
  +String recAula
  +String recNome
  +_AulaProfState createState()
}

"flutter::src::widgets::framework.dart::StatefulWidget" <|- - "rollcall::aulaProf.dart::AulaProf"

class "rollcall::aulaProf.dart::_AulaProfState" {
  +String aviso
  +Widget build()
}

"flutter::src::widgets::framework.dart::State" <|- - "rollcall::aulaProf.dart::_AulaProfState"

class "rollcall::main.dart::RollCall" {
  +_RollCallState createState()
}

"flutter::src::widgets::framework.dart::StatefulWidget" <|- - "rollcall::main.dart::RollCall"

class "rollcall::main.dart::_RollCallState" {
  +TextEditingController usuario
  +TextEditingController senha
  +String erro
  +void Errado()
  +Widget build()
}

"rollcall::main.dart::_RollCallState" o- - "flutter::src::widgets::editable_text.dart::TextEditingController"
"flutter::src::widgets::framework.dart::State" <|- - "rollcall::main.dart::_RollCallState"

class "rollcall::telaAluno.dart::telaAluno" {
  +String recebido
  +_telaAlunoState createState()
}

"flutter::src::widgets::framework.dart::StatefulWidget" <|- - "rollcall::telaAluno.dart::telaAluno"

class "rollcall::telaAluno.dart::_telaAlunoState" {
  +void initState()
  +Future<void> conexao()
  +Widget build()
}

"flutter::src::widgets::framework.dart::State" <|- - "rollcall::telaAluno.dart::_telaAlunoState"

class "rollcall::telaProfessor.dart::telaProfessor" {
  +String recebido
  +_telaProfessorState createState()
}

"flutter::src::widgets::framework.dart::StatefulWidget" <|- - "rollcall::telaProfessor.dart::telaProfessor"

class "rollcall::telaProfessor.dart::_telaProfessorState" {
  +void initState()
  +Future<void> conexao()
  +Widget build()
}

"flutter::src::widgets::framework.dart::State" <|- - "rollcall::telaProfessor.dart::_telaProfessorState"


@enduml

PlantUML version 1.2022.12(Sun Oct 23 15:12:26 BRT 2022)
(GPL source distribution)
Java Runtime: OpenJDK Runtime Environment
JVM: OpenJDK 64-Bit Server VM
Default Encoding: Cp1252
Language: pt
Country: BR
--></g></svg>